<svg width="108" height="120" viewBox="0 0 108 120" fill="none" xmlns="http://www.w3.org/2000/svg">
<g filter="url(#filter0_d_125_2)">
<path d="M65.4834 1.80835C69.0489 1.80842 72.2286 4.23929 73.748 7.93335L74.0742 8.72437L74.9033 8.51245C75.764 8.29249 76.6669 8.17554 77.5986 8.17554C83.4113 8.17568 88.1584 12.7408 88.4492 18.4812L88.4629 19.0398C88.4628 19.0422 88.4629 19.0456 88.4629 19.0486C88.4628 19.0547 88.4619 19.0632 88.4619 19.073V19.989L89.376 20.0554C95.5288 20.5 100.489 25.9977 100.489 32.8347C100.489 35.3059 99.8375 37.6082 98.7139 39.5603L98.2217 40.4158L99.0791 40.906C102.354 42.7792 104.557 46.3048 104.557 50.3435C104.557 53.3606 103.327 56.0884 101.341 58.0583L100.742 58.6521L101.236 59.3357C103.775 62.8435 105.163 68.5212 104.496 74.8308C103.665 82.695 99.9404 88.8505 95.6885 90.95L95.0918 91.2439L95.1426 91.908C95.1693 92.2584 95.1836 92.6114 95.1836 92.9666C95.1836 99.989 89.953 105.596 83.5693 105.772L82.8633 105.792L82.6553 106.467C80.8655 112.29 75.764 116.428 69.8164 116.428C62.411 116.428 56.2988 109.995 56.2988 101.918V12.6736C56.2988 6.52627 60.5472 1.80835 65.4834 1.80835Z" stroke="url(#paint0_linear_125_2)" stroke-width="1.96946"/>
<path d="M83.0799 103.984L82.3798 103.846L82.7299 103.915L82.3798 103.846C82.3862 103.813 83.012 100.444 80.9972 97.9996C79.5684 96.2665 77.1622 95.3871 73.8456 95.3871C70.4257 95.3871 67.9732 94.4379 66.5572 92.5649C64.3888 89.6969 65.4695 85.7594 65.5168 85.593L66.2037 85.7875C66.1933 85.8244 65.1736 89.5566 67.1293 92.138C68.4035 93.8209 70.6635 94.6737 73.8461 94.6737C77.3892 94.6737 79.9825 95.6422 81.5531 97.5521C83.7801 100.261 83.109 103.833 83.0799 103.984Z" fill="url(#paint1_linear_125_2)"/>
<path d="M73.8458 90.8799C73.8344 90.6544 73.6001 85.3132 77.1633 81.5604C79.3686 79.2374 82.535 78.0597 86.5734 78.0597C90.1322 78.0597 92.7516 77.0183 94.3581 74.9637C97.3547 71.1311 95.8712 64.9751 95.8559 64.9131L96.5482 64.7407C96.6142 65.0061 98.1326 71.2911 94.9219 75.3999C93.173 77.6382 90.3641 78.7731 86.5729 78.7731C82.7403 78.7731 79.7497 79.8745 77.6842 82.0468C74.3312 85.5732 74.5548 90.7907 74.5567 90.8429L73.8458 90.8799Z" fill="url(#paint2_linear_125_2)"/>
<path d="M87.7191 70.855C85.211 70.855 82.2687 70.3749 79.9388 68.6074C77.3209 66.6202 75.993 63.3745 75.993 58.9614C75.993 54.3352 74.6705 50.7444 72.0615 48.2899C67.8941 44.3692 61.8104 44.6912 61.7499 44.6957L61.7061 43.9837C61.9675 43.968 68.1609 43.6405 72.5504 47.7705C75.3081 50.3653 76.7064 54.1304 76.7064 58.9614C76.7064 63.1401 77.9388 66.1943 80.3696 68.0397C85.0761 71.6118 92.7806 69.5173 92.8579 69.4956L93.05 70.1829C92.8747 70.2312 90.5793 70.855 87.7191 70.855Z" fill="url(#paint3_linear_125_2)"/>
<path d="M69.6055 43.0974L68.8965 43.0206C68.9078 42.9167 69.188 40.446 70.5774 37.9379C72.4376 34.5805 75.4011 32.806 79.1475 32.806C88.1041 32.806 89.3114 27.6677 89.3114 22.6416H90.0248C90.0248 26.0704 89.3803 28.4815 87.9973 30.2285C86.244 32.4426 83.3494 33.5189 79.147 33.5189C75.6335 33.5189 72.9634 35.1157 71.2116 38.2643C69.8856 40.6479 69.6084 43.0733 69.6055 43.0974Z" fill="url(#paint4_linear_125_2)"/>
<path d="M79.4562 56.5572C78.6413 56.5572 78.0845 56.4642 78.0254 56.4538L78.1485 55.7512C78.1844 55.7576 81.8092 56.3583 84.2548 54.3007C85.7688 53.0265 86.5374 50.993 86.5374 48.256C86.5374 45.448 87.3838 43.2929 89.0534 41.8508C92.0164 39.291 96.4635 39.9104 96.6515 39.938L96.5477 40.6435C96.491 40.6357 92.2252 40.0507 89.5167 42.3934C88.013 43.6942 87.2503 45.6666 87.2503 48.256C87.2503 51.2156 86.3956 53.4342 84.7097 54.8502C83.0032 56.2835 80.8511 56.5572 79.4562 56.5572ZM96.5482 40.643H96.5477L96.5998 40.29L96.5482 40.643Z" fill="url(#paint5_linear_125_2)"/>
<path d="M74.3018 9.62646C74.2535 11.6559 73.6099 13.0476 72.6777 14.1187C71.6983 15.2439 70.3948 16.0264 69.0723 16.8179C67.8122 17.5722 66.5447 18.3286 65.5996 19.3989C64.6437 20.4816 64.0245 21.8756 64.0244 23.8892C64.0244 25.9796 64.6984 27.7195 66.04 29.0386C67.5169 30.4896 69.553 31.1899 71.2031 31.5308C72.4468 31.7876 73.4901 31.8442 73.9473 31.856L73.9512 32.0747C73.44 32.0651 72.215 32.0081 70.7832 31.6753C69.1577 31.2974 67.2888 30.5736 65.8877 29.1978C64.5088 27.8439 63.8038 26.0644 63.8037 23.8892C63.8037 21.7905 64.4526 20.3679 65.4072 19.2788C66.3719 18.1783 67.6561 17.4084 68.959 16.6284C70.2395 15.8621 71.5272 15.0933 72.4873 13.9976C73.4193 12.9337 74.0333 11.5713 74.0811 9.62646H74.3018Z" fill="url(#paint6_linear_125_2)" stroke="url(#paint7_linear_125_2)" stroke-width="0.492364"/>
<path d="M60.0035 76.2394H59.29C59.29 73.4891 60.0532 67.0913 67.1172 67.0913C69.768 67.0913 71.7016 65.9716 72.8635 63.7644C73.7483 62.0844 73.8384 60.3705 73.8399 60.3533L74.5523 60.3858C74.5489 60.4611 74.4578 62.2553 73.5066 64.0741C72.6169 65.7762 70.7868 67.8047 67.1172 67.8047C60.9276 67.8042 60.0035 73.0893 60.0035 76.2394Z" fill="url(#paint8_linear_125_2)"/>
<path d="M51.9813 35.2186C51.9813 34.5431 51.5966 33.9798 51.0745 33.8034V26.5572C51.5968 26.3808 51.9813 25.8174 51.9813 25.142C51.9813 24.4665 51.5966 23.9031 51.0745 23.7267V7.72993L48.0602 4.54554C48.0633 4.50277 48.0711 4.46147 48.0711 4.41772C48.0711 3.60146 47.5131 2.9399 46.8245 2.9399C46.7855 2.9399 46.7486 2.94943 46.7107 2.95359L45.4465 1.03855L40.5334 1.62948C40.3264 1.15317 39.9122 0.823975 39.4291 0.823975C38.8791 0.823975 38.4175 1.24897 38.2519 1.83477L34.3965 2.06743L17.652 12.0559L18.1107 19.5598C17.6584 19.7556 17.332 20.25 17.2982 20.8439L10.0208 22.6797L1.65344 52.2665L3.8262 56.3984C3.69941 56.5641 3.60602 56.7633 3.55283 56.9844L3.54376 57.0191C3.51799 57.1377 3.50005 57.2596 3.50005 57.3877C3.50005 57.7726 3.62726 58.1201 3.83074 58.3831L1.64746 62.589L6.33584 76.529C6.17133 76.7357 6.05752 76.9977 6.01505 77.29L5.99547 77.293L6.01382 77.3054C6.0033 77.3826 5.99382 77.4604 5.99382 77.541C5.99382 78.3573 6.55191 79.0188 7.24049 79.0188C7.54129 79.0188 7.81342 78.8874 8.02886 78.6772L14.4216 83.029C14.3975 83.1436 14.381 83.2619 14.381 83.3853C14.381 83.7927 14.5202 84.1615 14.7451 84.4289L12.8389 88.4647L22.1284 102.152L27.9021 105.311C27.9215 105.885 28.2148 106.374 28.6338 106.598L28.7445 106.645C28.8036 106.669 28.8634 106.691 28.9261 106.704L26.8218 111.777L34.2462 116.336H43.9876C44.1365 116.955 44.6117 117.411 45.1815 117.411C45.7514 117.411 46.2266 116.955 46.3754 116.336L46.3919 116.273C46.4138 116.164 46.4284 116.05 46.4284 115.933C46.4284 115.543 46.2985 115.191 46.0903 114.927L50.434 105.976C50.5309 106.004 50.6307 106.024 50.7352 106.024C51.4238 106.024 51.9819 105.363 51.9819 104.546C51.9819 103.871 51.5972 103.307 51.0752 103.131V94.8773C51.5974 94.7008 51.9819 94.1375 51.9819 93.462C51.9819 92.7865 51.5972 92.2232 51.0752 92.0467V70.7942C51.5974 70.6177 51.9819 70.0544 51.9819 69.3789C51.9819 68.7034 51.5972 68.1401 51.0752 67.9636V52.1524C51.5974 51.9759 51.9819 51.4126 51.9819 50.7371C51.9819 50.0616 51.5972 49.4983 51.0752 49.3218V36.6344C51.5968 36.4574 51.9813 35.8941 51.9813 35.2186ZM5.94042 56.9842C5.92991 56.9407 5.92042 56.8969 5.90661 56.8552L14.9366 48.7852L25.7586 39.1137C25.9274 39.2652 26.1285 39.3644 26.3488 39.3979L28.4589 56.0435C28.1291 56.2214 27.8798 56.5646 27.779 56.9837H5.94042V56.9842ZM25.6281 36.8927C25.4015 37.1603 25.2613 37.5303 25.2613 37.9394C25.2613 38.1276 25.2939 38.3057 25.3479 38.4712L5.5984 56.1213L18.3579 22.3999C18.4167 22.4099 18.4752 22.4212 18.5364 22.4212C18.6346 22.4212 18.729 22.4045 18.8205 22.3791L21.1156 27.2718L25.6281 36.8927ZM29.8433 75.2714L39.9227 82.1226C39.8988 82.2369 39.8823 82.3548 39.8823 82.4779C39.8823 82.8582 40.0068 83.2016 40.206 83.4633L29.4364 103.818C29.3962 103.807 29.3549 103.8 29.3133 103.793V75.6304C29.5149 75.5624 29.6972 75.4405 29.8433 75.2714ZM43.4195 103.203C43.0704 103.391 42.8084 103.763 42.721 104.216L30.3655 104.964C30.3175 104.675 30.1983 104.416 30.0301 104.214L40.783 83.891C40.8441 83.912 40.9061 83.9271 40.9704 83.9369L41.0459 84.5298L43.4195 103.203ZM30.1796 74.5705C30.2035 74.4561 30.22 74.3383 30.22 74.2151C30.22 74.0895 30.2027 73.9697 30.1779 73.8532L30.1198 73.6347C29.9734 73.2288 29.6761 72.9223 29.3133 72.7996V58.8982L40.2089 81.3874L30.1796 74.5705ZM29.1737 55.9333C29.1601 55.9306 29.1459 55.9304 29.1321 55.9282L27.0222 39.2826C27.4535 39.0502 27.7549 38.5377 27.7549 37.9392C27.7549 37.8265 27.7421 37.7177 27.7219 37.6122L36.9506 31.6322L39.3052 30.1067C39.3277 30.1339 39.3539 30.1561 39.3782 30.1813L35.2081 40.7052L29.1737 55.9333ZM49.8126 34.2315L41.4182 29.3364C41.4314 29.2504 41.4407 29.1624 41.4407 29.072C41.4407 29.058 41.4376 29.0451 41.4372 29.0312L49.6937 25.9528C49.8559 26.2449 50.1041 26.4592 50.3946 26.5572V33.8034C50.167 33.8801 49.967 34.0292 49.8126 34.2315ZM38.9508 29.028C38.9504 29.0429 38.9471 29.0568 38.9471 29.0717C38.9471 29.1844 38.9599 29.2931 38.9801 29.3987L37.7268 30.2108L27.3966 36.9039C27.1704 36.6312 26.8564 36.4611 26.5082 36.4611C26.4099 36.4611 26.3154 36.478 26.2237 36.5034L21.2656 25.9333L19.4162 21.9901C19.4759 21.9192 19.5291 21.8407 19.5759 21.7569L29.3168 25.4122L38.9508 29.028ZM5.99938 57.7902H27.7792C27.8969 58.2802 28.2198 58.6627 28.6331 58.8024V72.8001C28.4354 72.8668 28.2569 72.9858 28.1124 73.1501L7.42357 58.7797L5.99938 57.7902ZM8.47068 77.7304L27.3434 74.8686L16.4927 82.324C16.2684 82.0666 15.9641 81.9068 15.6273 81.9068C15.2885 81.9068 14.9824 82.0681 14.7577 82.3281L8.41625 78.0115C8.44202 77.9213 8.46016 77.8277 8.47068 77.7304ZM45.1809 114.455C44.8478 114.455 44.547 114.612 44.3233 114.864L31.0216 105.804L42.8628 105.29C43.0795 105.727 43.4757 106.024 43.9343 106.024C44.4253 106.024 44.8457 105.684 45.049 105.195L49.5541 105C49.6139 105.218 49.7106 105.415 49.8423 105.575L45.5063 114.512C45.4019 114.478 45.2943 114.455 45.1809 114.455ZM49.5407 104.143H45.1279C44.9933 103.583 44.5907 103.163 44.0926 103.087L42.0771 87.2313L41.6436 83.8208C41.6813 83.8006 41.7167 83.7754 41.7522 83.7509L42.6387 84.7644L49.6392 92.7694C49.5458 92.9766 49.4879 93.2098 49.4879 93.4615C49.4879 94.137 49.8724 94.7003 50.3946 94.8768V103.131C49.9813 103.27 49.6584 103.653 49.5407 104.143ZM50.1109 92.1887L42.2241 83.1703C42.3177 82.9628 42.3756 82.7296 42.3756 82.4782C42.3756 82.1798 42.2998 81.9031 42.1713 81.6709L43.8242 79.4167L50.2064 70.7128C50.2666 70.7463 50.3295 70.7719 50.3944 70.7937V92.0463C50.294 92.0802 50.1994 92.1279 50.1109 92.1887ZM49.4879 69.3784C49.4879 69.6768 49.5638 69.9535 49.6922 70.1859L41.657 81.1436C41.4961 81.0539 41.3184 81.0001 41.1292 81.0001C41.0249 81.0001 40.9253 81.0196 40.8286 81.0482L29.865 58.4178C30.0773 58.1597 30.2089 57.8102 30.2171 57.4236L49.6634 51.4805C49.8237 51.8046 50.0835 52.0465 50.3948 52.1519V67.9631C49.8724 68.1396 49.4879 68.7029 49.4879 69.3784ZM49.491 50.7002L30.0447 56.643C29.9761 56.5047 29.8901 56.3823 29.7887 56.2774L35.8951 40.8679L39.9936 30.5259C40.0592 30.5386 40.1254 30.5498 40.1938 30.5498C40.561 30.5498 40.8876 30.3582 41.1156 30.0591L49.5102 34.9542C49.497 35.0402 49.4877 35.1282 49.4877 35.2186C49.4877 35.8941 49.8722 36.4574 50.3944 36.6339V49.3214C49.8821 49.4944 49.5048 50.0413 49.491 50.7002ZM50.3946 8.09187V23.7267C49.8724 23.9031 49.4879 24.4665 49.4879 25.142C49.4879 25.1559 49.491 25.1688 49.4914 25.1828L41.2349 28.2611C41.1407 28.0912 41.0176 27.9468 40.8741 27.8354L45.0348 11.9642L46.6319 5.87233C46.6952 5.88406 46.7585 5.8953 46.8245 5.8953C47.2168 5.8953 47.5625 5.67608 47.791 5.34029L50.3946 8.09187ZM46.053 3.26494C45.7656 3.53572 45.5776 3.94874 45.5776 4.41772C45.5776 4.863 45.7471 5.25744 46.0097 5.52847L44.3373 11.9078L40.2243 27.5976C40.214 27.5973 40.2043 27.5939 40.1938 27.5939C39.7588 27.5939 39.377 27.8586 39.1539 28.2589L29.8835 24.7795L19.7792 20.9871C19.7796 20.9722 19.7829 20.9582 19.7829 20.9433C19.7829 20.7539 19.7501 20.5741 19.6953 20.4076L29.9829 11.1619L38.6103 3.40864C38.8296 3.6369 39.1139 3.77962 39.4287 3.77962C40.0819 3.77962 40.6117 3.18185 40.6651 2.42399L45.142 1.8856L46.053 3.26494ZM34.5024 2.8678L38.219 2.64394C38.2247 2.67303 38.2338 2.7004 38.2412 2.72875L29.1351 10.9126L19.283 19.7666C19.1384 19.6373 18.9723 19.5408 18.7884 19.4958L18.3629 12.5327L34.5024 2.8678ZM10.542 23.3723L17.4397 21.6325C17.5149 21.8004 17.6157 21.9478 17.7374 22.0692L4.92506 55.9306C4.8663 55.9206 4.80775 55.9094 4.74673 55.9094C4.62695 55.9094 4.51335 55.9358 4.40347 55.9731L2.39975 52.1624L10.542 23.3723ZM4.41047 58.8039C4.51809 58.8398 4.62942 58.8653 4.74673 58.8653C5.08133 58.8653 5.38378 58.7069 5.60767 58.4525L6.45088 59.0383L27.7701 73.8471C27.7596 73.8957 27.7516 73.9446 27.7452 73.9949L8.37378 76.9317C8.17772 76.42 7.74518 76.0624 7.24029 76.0624C7.13184 76.0624 7.02856 76.084 6.92836 76.1148L2.40573 62.6655L4.41047 58.8039ZM13.6559 88.3824L15.3395 84.8194C15.4322 84.8456 15.5279 84.8629 15.6275 84.8629C16.3161 84.8629 16.8744 84.2014 16.8744 83.3851C16.8744 83.2597 16.8572 83.1397 16.8323 83.0234L28.108 75.276C28.2532 75.4424 28.4336 75.5629 28.6333 75.6304V103.905C28.3948 104.033 28.1992 104.247 28.0689 104.514L22.5579 101.499L13.6559 88.3824ZM27.725 111.423L29.7545 106.532C29.905 106.431 30.0355 106.296 30.1386 106.133L43.9347 115.529H34.4115L27.725 111.423Z" fill="url(#paint9_linear_125_2)"/>
</g>
<defs>
<filter id="filter0_d_125_2" x="-0.0004462" y="2.10404e-05" width="107.296" height="119.885" filterUnits="userSpaceOnUse" color-interpolation-filters="sRGB">
<feFlood flood-opacity="0" result="BackgroundImageFix"/>
<feColorMatrix in="SourceAlpha" type="matrix" values="0 0 0 0 0 0 0 0 0 0 0 0 0 0 0 0 0 0 127 0" result="hardAlpha"/>
<feOffset dy="0.823954"/>
<feGaussianBlur stdDeviation="0.823954"/>
<feComposite in2="hardAlpha" operator="out"/>
<feColorMatrix type="matrix" values="0 0 0 0 0 0 0 0 0 0 0 0 0 0 0 0 0 0 0.25 0"/>
<feBlend mode="normal" in2="BackgroundImageFix" result="effect1_dropShadow_125_2"/>
<feBlend mode="normal" in="SourceGraphic" in2="effect1_dropShadow_125_2" result="shape"/>
</filter>
<linearGradient id="paint0_linear_125_2" x1="80.4809" y1="0.823975" x2="80.4809" y2="117.413" gradientUnits="userSpaceOnUse">
<stop stop-color="#361C04"/>
<stop offset="0.5" stop-color="#964D08"/>
<stop offset="1" stop-color="#F57E0B"/>
</linearGradient>
<linearGradient id="paint1_linear_125_2" x1="74.2015" y1="85.593" x2="74.2015" y2="103.984" gradientUnits="userSpaceOnUse">
<stop stop-color="#361C04"/>
<stop offset="1" stop-color="#F57E0B"/>
</linearGradient>
<linearGradient id="paint2_linear_125_2" x1="85.4015" y1="64.7407" x2="85.4015" y2="90.8799" gradientUnits="userSpaceOnUse">
<stop stop-color="#361C04"/>
<stop offset="1" stop-color="#F57E0B"/>
</linearGradient>
<linearGradient id="paint3_linear_125_2" x1="77.378" y1="43.9717" x2="77.378" y2="70.855" gradientUnits="userSpaceOnUse">
<stop stop-color="#361C04"/>
<stop offset="1" stop-color="#F57E0B"/>
</linearGradient>
<linearGradient id="paint4_linear_125_2" x1="79.4607" y1="22.6416" x2="79.4607" y2="43.0974" gradientUnits="userSpaceOnUse">
<stop stop-color="#361C04" stop-opacity="0.44"/>
<stop offset="1" stop-color="#F57E0B"/>
</linearGradient>
<linearGradient id="paint5_linear_125_2" x1="87.3385" y1="39.8528" x2="87.3385" y2="56.5572" gradientUnits="userSpaceOnUse">
<stop stop-color="#361C04"/>
<stop offset="1" stop-color="#F57E0B"/>
</linearGradient>
<linearGradient id="paint6_linear_125_2" x1="69.0554" y1="9.38037" x2="69.0554" y2="32.3255" gradientUnits="userSpaceOnUse">
<stop stop-color="#361C04"/>
<stop offset="1" stop-color="#F57E0B"/>
</linearGradient>
<linearGradient id="paint7_linear_125_2" x1="69.0554" y1="9.38037" x2="69.0554" y2="32.3255" gradientUnits="userSpaceOnUse">
<stop stop-color="#361C04"/>
<stop offset="0.5" stop-color="#964D08"/>
<stop offset="1" stop-color="#F57E0B"/>
</linearGradient>
<linearGradient id="paint8_linear_125_2" x1="66.9212" y1="60.3533" x2="66.9212" y2="76.2394" gradientUnits="userSpaceOnUse">
<stop stop-color="#361C04"/>
<stop offset="1" stop-color="#F57E0B"/>
</linearGradient>
<linearGradient id="paint9_linear_125_2" x1="9.09791" y1="24.1864" x2="113.716" y2="112.441" gradientUnits="userSpaceOnUse">
<stop stop-color="#361C04"/>
<stop offset="0.4924" stop-color="#F57E0B"/>
<stop offset="1" stop-color="#F9ED32"/>
</linearGradient>
</defs>
</svg>
